HIERARCHY
ROOT Hips
{
	OFFSET -0.001795 -0.223333 0.028219
	CHANNELS 6 Xposition Yposition Zposition Zrotation Yrotation Xrotation 
	JOINT LeftUpLeg
	{
		OFFSET 0.069520 -0.091406 -0.006815
		CHANNELS 3 Zrotation Yrotation Xrotation
		JOINT LeftLeg
		{
			OFFSET 0.034277 -0.375199 -0.004496
			CHANNELS 3 Zrotation Yrotation Xrotation
			JOINT LeftFoot
			{
				OFFSET -0.013596 -0.397961 -0.043693
				CHANNELS 3 Zrotation Yrotation Xrotation
				JOINT LeftToe
				{
					OFFSET 0.026358 -0.055791 0.119288
					CHANNELS 3 Zrotation Yrotation Xrotation
					End Site
					{
						OFFSET 0.000000 0.000000 0.000000
					}
				}
			}
		}
	}
	JOINT RightUpLeg
	{
		OFFSET -0.067670 -0.090522 -0.004320
		CHANNELS 3 Zrotation Yrotation Xrotation
		JOINT RightLeg
		{
			OFFSET -0.038290 -0.382569 -0.008850
			CHANNELS 3 Zrotation Yrotation Xrotation
			JOINT RightFoot
			{
				OFFSET 0.015774 -0.398415 -0.042312
				CHANNELS 3 Zrotation Yrotation Xrotation
				JOINT RightToe
				{
					OFFSET -0.025372 -0.048144 0.123348
					CHANNELS 3 Zrotation Yrotation Xrotation
					End Site
					{
						OFFSET 0.000000 0.000000 0.000000
					}
				}
			}
		}
	}
	JOINT Spine
	{
		OFFSET -0.002533 0.108963 -0.026696
		CHANNELS 3 Zrotation Yrotation Xrotation
		JOINT Spine1
		{
			OFFSET 0.005487 0.135180 0.001092
			CHANNELS 3 Zrotation Yrotation Xrotation
			JOINT Spine2
			{
				OFFSET 0.001457 0.052922 0.025425
				CHANNELS 3 Zrotation Yrotation Xrotation
				JOINT Neck
				{
					OFFSET -0.002778 0.213870 -0.042857
					CHANNELS 3 Zrotation Yrotation Xrotation
					JOINT Head
					{
						OFFSET 0.005152 0.064970 0.051349
						CHANNELS 3 Zrotation Yrotation Xrotation
						End Site
						{
							OFFSET 0.000000 0.000000 0.000000
						}
					}
				}
				JOINT LeftShoulder
				{
					OFFSET 0.078845 0.121749 -0.034090
					CHANNELS 3 Zrotation Yrotation Xrotation
					JOINT LeftArm
					{
						OFFSET 0.090977 0.030469 -0.008868
						CHANNELS 3 Zrotation Yrotation Xrotation
						JOINT LeftForeArm
						{
							OFFSET 0.259612 -0.012772 -0.027456
							CHANNELS 3 Zrotation Yrotation Xrotation
							JOINT LeftHand
							{
								OFFSET 0.249234 0.008986 -0.001171
								CHANNELS 3 Zrotation Yrotation Xrotation
								End Site
								{
									OFFSET 0.000000 0.000000 0.000000
								}
							}
						}
					}
				}
				JOINT RightShoulder
				{
					OFFSET -0.081759 0.118833 -0.038615
					CHANNELS 3 Zrotation Yrotation Xrotation
					JOINT RightArm
					{
						OFFSET -0.096012 0.032551 -0.009143
						CHANNELS 3 Zrotation Yrotation Xrotation
						JOINT RightForeArm
						{
							OFFSET -0.253742 -0.013329 -0.021401
							CHANNELS 3 Zrotation Yrotation Xrotation
							JOINT RightHand
							{
								OFFSET -0.255298 0.007772 -0.005559
								CHANNELS 3 Zrotation Yrotation Xrotation
								End Site
								{
									OFFSET 0.000000 0.000000 0.000000
								}
							}
						}
					}
				}
			}
		}
	}
}
MOTION
Frames: 16
Frame Time: 0.050000
-2.040780 0.934891 -0.487073 -3.739625 4.288303 5.671811 4.602947 -0.933148 -14.410232 -0.340614 -0.505005 13.829563 0.262497 -0.905967 -2.711495 0.000000 0.000000 0.000000 -0.883471 1.283894 -14.033958 1.830043 0.039002 19.073671 -2.432398 -6.549286 1.171136 0.000000 0.000000 0.000000 5.715152 -1.382994 12.388141 -2.077004 1.065852 -6.264120 -1.575967 10.139181 10.936910 13.793533 -2.732134 -31.177564 0.000000 0.000000 0.000000 -11.700397 -14.058969 3.137357 -54.351188 -19.375558 1.800847 -22.129765 -48.369512 9.901459 0.000000 0.000000 0.000000 15.439276 7.086632 5.198485 61.678008 28.582650 9.446902 21.290943 53.787815 15.923744 0.000000 0.000000 0.000000 
-2.041124 0.933439 -0.490430 -3.812023 2.554174 4.839701 4.993566 -0.831033 -14.011615 -0.931518 -0.368897 15.013144 0.340549 -0.876736 -3.102147 0.000000 0.000000 0.000000 -1.211166 1.500013 -16.740912 2.408278 -0.000936 25.535489 -2.521342 -6.768464 1.110781 0.000000 0.000000 0.000000 4.873592 -1.255073 12.765240 -1.705047 0.889052 -5.737691 -1.560792 9.832117 10.984848 13.807087 -2.871726 -31.374956 0.000000 0.000000 0.000000 -11.178418 -13.948856 3.390465 -53.056810 -19.865519 1.924562 -20.251693 -52.925044 10.239067 0.000000 0.000000 0.000000 16.881801 7.877791 5.551558 62.314157 28.762313 9.505464 16.475869 58.141863 14.594366 0.000000 0.000000 0.000000 
-2.042464 0.933127 -0.493722 -3.790595 1.259628 3.390365 5.768700 -0.674044 -13.114208 -2.175583 -0.068966 16.859186 0.850755 0.496440 -2.807601 0.000000 0.000000 0.000000 -1.589013 1.646816 -18.781296 2.726099 0.039705 30.845742 -1.604478 -4.585100 1.259994 0.000000 0.000000 0.000000 3.619240 -1.120701 13.806533 -1.220492 0.650519 -4.122341 -1.365040 9.950524 10.615116 13.584656 -2.997011 -30.532853 0.000000 0.000000 0.000000 -11.539461 -13.670660 3.320059 -51.896640 -20.782434 2.352879 -16.005296 -59.646153 9.306565 0.000000 0.000000 0.000000 16.828600 6.532102 4.643557 63.809498 28.314058 9.654230 20.946658 63.570899 19.365766 0.000000 0.000000 0.000000 
-2.046612 0.933573 -0.494605 -4.239251 0.357695 1.956054 6.620087 -0.511950 -11.866142 -2.176391 -0.049874 17.639179 0.879267 0.482794 -3.024799 0.000000 0.000000 0.000000 -3.026739 1.527158 -19.598470 4.736359 -0.672295 33.598318 -2.184522 -5.518937 -0.100041 0.000000 0.000000 0.000000 3.190596 -0.999419 13.410334 -0.996773 0.544519 -3.915349 -0.492841 9.383947 11.622168 12.749898 -3.034062 -29.162001 0.000000 0.000000 0.000000 -12.216380 -13.211352 3.297868 -50.899356 -21.663366 2.610250 -13.584381 -66.684251 9.386202 0.000000 0.000000 0.000000 15.424072 7.270950 4.584832 66.421579 27.187418 9.654895 27.100392 69.039334 25.810294 0.000000 0.000000 0.000000 
-2.054321 0.933291 -0.493397 -4.450735 -0.679619 1.226506 7.843021 -0.347439 -10.951254 -2.553114 0.092275 17.913014 1.247625 1.485064 -2.753281 0.000000 0.000000 0.000000 -6.348610 1.067356 -19.487734 5.115359 -0.694504 33.834012 -2.355748 -6.408831 1.177132 0.000000 0.000000 0.000000 3.124108 -0.882688 12.230232 -0.576255 0.337546 -3.174461 -0.324178 9.306831 11.758585 12.017073 -2.782161 -28.995981 0.000000 0.000000 0.000000 -10.707364 -11.717715 2.873268 -52.873475 -22.827412 3.125280 -11.900430 -73.225489 9.453346 0.000000 0.000000 0.000000 13.963338 6.739208 3.986758 68.591768 25.356715 9.123560 46.026769 72.534689 42.390269 0.000000 0.000000 0.000000 
-2.066602 0.933185 -0.491645 -4.640878 -2.267588 0.480288 8.401875 -0.231934 -10.219504 -2.661059 0.189037 19.428622 1.349135 1.127053 -4.234206 0.000000 0.000000 0.000000 -9.076111 0.686317 -17.679404 4.097560 -0.068882 32.619708 -1.921959 -5.636245 1.851963 0.000000 0.000000 0.000000 3.872391 -0.879565 11.404466 -1.012468 0.522376 -3.578370 -0.035788 9.867593 12.879511 11.881229 -2.867371 -28.572534 0.000000 0.000000 0.000000 -9.526946 -12.003190 3.170288 -52.850772 -25.084699 3.953022 -3.061335 -79.599715 3.436556 0.000000 0.000000 0.000000 12.096421 6.316223 3.530887 71.456043 24.372837 9.224133 69.094208 73.441465 63.172488 0.000000 0.000000 0.000000 
-2.085234 0.932838 -0.490744 -5.041240 -3.063471 -0.084512 9.983714 -0.059808 -10.312917 -2.988209 0.327573 20.634323 1.528678 1.806418 -3.710064 0.000000 0.000000 0.000000 -11.832549 0.363759 -15.844455 3.351292 0.282657 30.971199 -1.123600 -5.121565 5.191629 0.000000 0.000000 0.000000 4.329833 -0.856260 10.667230 -0.648670 0.346364 -2.960268 0.130155 10.170859 12.497927 11.650227 -3.040658 -27.047613 0.000000 0.000000 0.000000 -8.350690 -12.403675 3.432476 -53.089147 -28.199566 5.365056 23.692000 -81.830112 -19.643081 0.000000 0.000000 0.000000 12.193024 6.091896 3.396072 71.937660 24.089453 9.148435 83.900881 72.551239 76.171074 0.000000 0.000000 0.000000 
-2.111557 0.929397 -0.491189 -5.606995 -3.938481 -0.855770 11.777654 0.167860 -10.840533 -3.319029 0.500567 23.074920 1.663337 2.001606 -4.067338 0.000000 0.000000 0.000000 -14.257202 0.151568 -14.677995 1.763196 1.001919 31.161112 0.526449 -3.689494 10.177849 0.000000 0.000000 0.000000 5.009424 -0.861322 10.160788 -0.930323 0.460823 -2.267678 0.748138 10.494679 12.276841 11.859822 -3.310685 -26.356818 0.000000 0.000000 0.000000 -7.155174 -13.738498 4.067706 -51.106025 -31.402102 6.471821 60.779383 -80.535412 -51.758510 0.000000 0.000000 0.000000 12.529202 7.319969 3.993390 71.814551 25.227056 9.831565 89.697218 71.478683 80.668868 0.000000 0.000000 0.000000 
-2.144563 0.921507 -0.493600 -6.016450 -5.511004 -1.525237 14.050844 0.551032 -12.005628 -4.133122 0.969213 26.435712 1.853245 2.323627 -4.526882 0.000000 0.000000 0.000000 -16.421488 0.068028 -13.482277 0.484140 1.673177 31.276049 1.690583 -2.951505 13.447912 0.000000 0.000000 0.000000 4.533124 -0.824553 10.629017 -0.644951 0.320000 -2.455653 1.654939 11.163072 12.315155 11.081967 -3.151449 -25.145591 0.000000 0.000000 0.000000 -4.771913 -15.628859 4.912784 -48.052220 -34.473993 7.134318 74.776416 -75.122701 -59.789021 0.000000 0.000000 0.000000 12.422830 8.848996 4.672368 71.155406 26.754108 10.672297 93.509984 71.185214 84.020023 0.000000 0.000000 0.000000 
-2.182903 0.907961 -0.498929 -6.243386 -5.792502 -2.196701 17.629088 1.219501 -14.411195 -4.733384 1.370883 31.204663 1.956593 2.052101 -5.759044 0.000000 0.000000 0.000000 -19.074372 -0.086166 -12.625192 0.351725 1.879436 32.904901 3.600441 -0.463170 15.766902 0.000000 0.000000 0.000000 4.446206 -0.873401 11.623408 -0.388908 0.206723 -3.250958 1.786961 11.337937 12.661753 11.603739 -2.911312 -28.031321 0.000000 0.000000 0.000000 -2.513615 -16.130033 5.138531 -45.236049 -37.969743 7.763129 76.107382 -70.273673 -56.707081 0.000000 0.000000 0.000000 13.184257 10.142501 5.409484 70.549024 29.123241 12.027048 93.161397 71.436935 83.936482 0.000000 0.000000 0.000000 
-2.224792 0.892060 -0.508021 -5.967319 -6.865461 -3.125175 20.193056 1.925362 -16.135807 -5.222833 1.851525 34.853455 2.092853 2.427133 -5.678571 0.000000 0.000000 0.000000 -20.758392 -0.112983 -12.087681 -0.618122 2.611180 35.059161 4.613076 0.835762 16.601151 0.000000 0.000000 0.000000 4.400204 -0.938505 13.159091 -0.589977 0.282585 -2.209434 1.434144 11.235306 11.461704 11.578401 -2.767845 -28.988979 0.000000 0.000000 0.000000 -1.096594 -18.024285 5.806757 -41.949130 -40.358335 7.939832 77.080550 -64.825799 -52.710294 0.000000 0.000000 0.000000 14.571156 12.368481 6.557777 69.821660 31.270410 13.241578 91.595432 71.400927 81.575634 0.000000 0.000000 0.000000 
-2.269790 0.879902 -0.521680 -4.641290 -8.395124 -3.667191 22.226368 2.664945 -17.473153 -5.622639 2.387667 37.061576 1.027347 1.296742 -2.368847 0.000000 0.000000 0.000000 -23.733599 -0.188906 -12.786639 -1.263079 3.239094 36.425358 6.324053 2.431806 19.027533 0.000000 0.000000 0.000000 4.190023 -0.976992 14.962797 -1.032890 0.477406 -1.824231 0.762444 11.235748 10.470369 12.132664 -2.516981 -32.308452 0.000000 0.000000 0.000000 -1.477319 -19.056808 6.195129 -39.076727 -42.294270 7.981444 77.907205 -62.337372 -51.025916 0.000000 0.000000 0.000000 13.862773 14.651882 7.408070 70.722278 33.024961 14.851746 88.945814 73.459684 80.448359 0.000000 0.000000 0.000000 
-2.320739 0.876013 -0.540217 -3.439914 -8.457262 -3.074906 22.788847 2.828061 -17.913481 -4.594028 1.868744 36.063642 0.013879 -0.042676 -0.213368 0.000000 0.000000 0.000000 -26.051711 -0.325503 -13.616473 -1.629094 3.326111 35.902510 7.517868 2.528001 22.779697 0.000000 0.000000 0.000000 4.702150 -1.075600 15.555568 -1.786334 0.855974 -0.278716 0.397371 9.904852 8.422535 10.861100 -2.090709 -31.848204 0.000000 0.000000 0.000000 -2.616081 -20.010509 6.656337 -38.188619 -42.515965 8.121503 78.429187 -62.828446 -51.410454 0.000000 0.000000 0.000000 13.402829 15.858844 7.644681 70.476578 33.869912 15.474744 88.173905 73.837361 79.021972 0.000000 0.000000 0.000000 
-2.379139 0.878795 -0.564060 -3.149060 -9.394717 -0.606186 26.368221 3.502983 -17.375479 -4.371997 1.492264 28.735196 -0.092041 2.377862 7.480768 0.000000 0.000000 0.000000 -26.995121 -0.301282 -15.381788 -0.561854 2.713601 34.181019 7.012938 0.573618 25.052640 0.000000 0.000000 0.000000 4.852878 -1.117279 15.636844 -1.739539 0.815135 -1.051850 0.461721 10.643366 7.904748 9.671359 -1.601307 -31.159507 0.000000 0.000000 0.000000 -4.771808 -17.903307 5.964831 -40.199985 -43.941061 9.302979 79.149484 -69.153588 -57.494529 0.000000 0.000000 0.000000 10.798941 14.867032 6.835283 73.508876 34.849063 17.585266 83.334015 74.107517 74.599191 0.000000 0.000000 0.000000 
-2.441923 0.886865 -0.591585 -2.152293 -8.894615 1.320073 27.116710 3.506960 -17.541646 -2.296960 0.458617 21.930962 0.704870 5.317975 13.621177 0.000000 0.000000 0.000000 -25.981724 -0.238253 -15.876175 0.756369 1.885154 31.960315 6.923122 1.545088 22.853928 0.000000 0.000000 0.000000 5.655490 -1.311277 16.226205 -1.647842 0.750233 -2.475585 0.195779 8.680188 7.327900 8.743189 -1.301211 -31.611263 0.000000 0.000000 0.000000 -5.866675 -16.448815 5.631644 -43.962359 -44.287242 10.878454 78.747184 -73.090991 -59.811853 0.000000 0.000000 0.000000 8.038095 15.729834 6.610573 75.299055 34.635025 18.017256 91.273501 74.292055 81.702646 0.000000 0.000000 0.000000 
-2.504470 0.890446 -0.621728 -1.086535 -9.495038 2.668775 27.374633 3.719483 -18.347649 -5.337224 1.557731 22.599671 1.961901 6.490728 9.941491 0.000000 0.000000 0.000000 -24.546681 -0.235960 -18.332874 1.616526 1.610419 32.170296 3.044474 -1.688233 15.415921 0.000000 0.000000 0.000000 5.953223 -1.412335 16.993323 -1.320196 0.592685 -2.942379 -0.309031 7.991586 8.131631 8.215567 -1.098973 -32.275311 0.000000 0.000000 0.000000 -7.168650 -15.740123 5.526958 -46.874175 -45.573004 12.477317 81.957358 -76.008365 -64.782375 0.000000 0.000000 0.000000 7.786379 15.621197 6.437413 73.659421 36.872986 18.899277 94.203993 74.825885 84.946299 0.000000 0.000000 0.000000 
